<svg xmlns="http://www.w3.org/2000/svg" baseProfile="tiny" version="1.2" viewBox="0 0 32 32"><path d="M26.943 18.607s-3.184.932-4.065 3.039l1.322.146s-2.058 2.842-4.066 2.793c-2.009-.051-2.743-1.08-2.939-1.52l-.373-11.954h2.92a1.32 1.32 0 0 0 1.226.833 1.323 1.323 0 0 0 0-2.646c-.479 0-.894.257-1.125.638h-3.056l-.073-2.293a2.884 2.884 0 1 0-3.72-2.758c0 1.259.809 2.328 1.935 2.721l-.05 2.332h-2.802a1.317 1.317 0 0 0-2.476.636 1.323 1.323 0 0 0 2.529.538h2.724l-.255 11.905s-1.078 1.617-2.45 1.617-3.821-1.029-4.801-2.795l1.372-.244s-1.567-1.861-4.017-2.938c0 0-.441 3.43.588 5.045l.735-1.322s2.939 4.654 6.369 5.684c3.429 1.027 3.478 2.498 3.478 2.498s1.029-2.01 3.331-2.596c2.303-.59 4.9-3.332 6.126-5.635l.636 1.225c-.002.001 1.321-1.861.977-4.949zM14.242 4.848a1.673 1.673 0 0 1 3.345 0 1.672 1.672 0 0 1-3.345 0z"/></svg>